<?xml version="1.0" encoding="utf-8"?>
<!-- Generator: Adobe Illustrator 23.0.3, SVG Export Plug-In . SVG Version: 6.00 Build 0)  -->
<svg version="1.1" id="Logo_FIXED" xmlns="http://www.w3.org/2000/svg" xmlns:xlink="http://www.w3.org/1999/xlink" x="0px" y="0px"
	 viewBox="0 0 25 20.3" style="enable-background:new 0 0 25 20.3;" xml:space="preserve">
<style type="text/css">
	.st0{fill:none;}
	.st1{fill:#FFFFFF;}
</style>
<title>Twitter_Logo_Blue</title>
<rect x="-187.5" y="-189.9" class="st0" width="400" height="400"/>
<path class="st1" d="M7.9,20.3c9.4,0,14.6-7.8,14.6-14.6c0-0.2,0-0.4,0-0.7c1-0.7,1.9-1.6,2.6-2.7c-0.9,0.4-1.9,0.7-2.9,0.8
	c1.1-0.6,1.9-1.6,2.3-2.8c-1,0.6-2.1,1-3.3,1.2c-1.9-2.1-5.2-2.2-7.3-0.2c-1.3,1.3-1.9,3.1-1.5,4.9c-4.1-0.2-8-2.2-10.6-5.4
	C0.4,3.3,1.1,6.3,3.3,7.8C2.5,7.8,1.7,7.5,1,7.1c0,0,0,0,0,0.1c0,2.4,1.7,4.5,4.1,5c-0.8,0.2-1.5,0.2-2.3,0.1
	c0.7,2.1,2.6,3.5,4.8,3.6c-1.8,1.4-4.1,2.2-6.4,2.2c-0.4,0-0.8,0-1.2-0.1C2.3,19.5,5.1,20.3,7.9,20.3"/>
</svg>
